<mxfile host="app.diagrams.net" modified="2023-05-04T22:45:10.842Z" agent="Mozilla/5.0 (Windows NT 10.0; Win64; x64) AppleWebKit/537.36 (KHTML, like Gecko) Chrome/112.0.0.0 Safari/537.36" version="21.2.7" etag="Bcj3jlKapjfaI1eRwJ2c" type="github">
  <diagram name="Page-1" id="AuEG6zzR7W_5dKXRxAIZ">
    <mxGraphModel>
      <root>
        <mxCell id="0" />
        <mxCell id="1" parent="0" />
      </root>
    </mxGraphModel>
  </diagram>
</mxfile>
